<svg xmlns="http://www.w3.org/2000/svg" xmlns:xlink="http://www.w3.org/1999/xlink" version="1.1" x="0px" y="0px" viewBox="0 0 100 100" enable-background="new 0 0 100 100" xml:space="preserve"><g><path d="M49.763,17.577c-6.798,0-12.31,5.505-12.31,12.307v24.615c0,6.8,5.513,12.31,12.31,12.31c6.8,0,12.31-5.51,12.31-12.31   V29.884C62.072,23.083,56.56,17.577,49.763,17.577z"/><path d="M65.763,40.96c-0.68,0-1.231,0.555-1.231,1.232v2.463h-1.229v2.461h1.229v8.617c0,6.703-5.323,12.255-12.308,13.333   c-0.802,0.125-1.62,0.203-2.461,0.203s-1.659-0.078-2.461-0.203c-6.982-1.078-12.309-6.63-12.309-13.333v-8.617h1.23v-2.461h-1.23   v-2.463c0-0.677-0.551-1.232-1.23-1.232c-0.682,0-1.233,0.555-1.233,1.232v14.771c0,7.438,6.423,13.578,14.772,14.602v7.552h-8.616   v2.461h22.152v-2.461h-8.614v-7.552c8.349-1.023,14.771-7.164,14.771-14.602V42.192C66.994,41.515,66.445,40.96,65.763,40.96z"/></g></svg>
